<mxfile host="app.diagrams.net" modified="2022-01-21T08:55:23.869Z" agent="5.0 (Windows NT 10.0; WOW64) AppleWebKit/537.36 (KHTML, like Gecko) Chrome/96.0.4664.110 YaBrowser/22.1.0.2510 Yowser/2.5 Safari/537.36" etag="IPzRVd2a-s4jW2L6BPqB" version="16.4.3" type="github">
  <diagram id="C5RBs43oDa-KdzZeNtuy" name="Page-1">
    <mxGraphModel dx="1085" dy="614" grid="1" gridSize="10" guides="1" tooltips="1" connect="1" arrows="1" fold="1" page="1" pageScale="1" pageWidth="827" pageHeight="1169" math="0" shadow="0">
      <root>
        <mxCell id="WIyWlLk6GJQsqaUBKTNV-0" />
        <mxCell id="WIyWlLk6GJQsqaUBKTNV-1" parent="WIyWlLk6GJQsqaUBKTNV-0" />
        <mxCell id="Gc9kroqKO5KA07v_D4qT-4" value="Начало" style="rounded=1;whiteSpace=wrap;html=1;" vertex="1" parent="WIyWlLk6GJQsqaUBKTNV-1">
          <mxGeometry x="320" y="40" width="120" height="60" as="geometry" />
        </mxCell>
        <mxCell id="Gc9kroqKO5KA07v_D4qT-5" value="" style="endArrow=classic;html=1;rounded=0;" edge="1" parent="WIyWlLk6GJQsqaUBKTNV-1">
          <mxGeometry width="50" height="50" relative="1" as="geometry">
            <mxPoint x="379.7" y="100" as="sourcePoint" />
            <mxPoint x="379.7" y="160" as="targetPoint" />
          </mxGeometry>
        </mxCell>
        <mxCell id="Gc9kroqKO5KA07v_D4qT-6" value="Оформление Предзаказа" style="rounded=0;whiteSpace=wrap;html=1;" vertex="1" parent="WIyWlLk6GJQsqaUBKTNV-1">
          <mxGeometry x="320" y="160" width="120" height="60" as="geometry" />
        </mxCell>
        <mxCell id="Gc9kroqKO5KA07v_D4qT-11" value="" style="edgeStyle=orthogonalEdgeStyle;rounded=0;orthogonalLoop=1;jettySize=auto;html=1;" edge="1" parent="WIyWlLk6GJQsqaUBKTNV-1" source="Gc9kroqKO5KA07v_D4qT-7" target="Gc9kroqKO5KA07v_D4qT-10">
          <mxGeometry relative="1" as="geometry" />
        </mxCell>
        <mxCell id="Gc9kroqKO5KA07v_D4qT-7" value="Заполнение полей: электронного адреса и телефона" style="rounded=0;whiteSpace=wrap;html=1;" vertex="1" parent="WIyWlLk6GJQsqaUBKTNV-1">
          <mxGeometry x="320" y="290" width="120" height="60" as="geometry" />
        </mxCell>
        <mxCell id="Gc9kroqKO5KA07v_D4qT-9" value="" style="endArrow=classic;html=1;rounded=0;exitX=0.5;exitY=1;exitDx=0;exitDy=0;" edge="1" parent="WIyWlLk6GJQsqaUBKTNV-1" source="Gc9kroqKO5KA07v_D4qT-6">
          <mxGeometry width="50" height="50" relative="1" as="geometry">
            <mxPoint x="379.64" y="240" as="sourcePoint" />
            <mxPoint x="379.64" y="290" as="targetPoint" />
          </mxGeometry>
        </mxCell>
        <mxCell id="Gc9kroqKO5KA07v_D4qT-13" value="да" style="edgeStyle=orthogonalEdgeStyle;rounded=0;orthogonalLoop=1;jettySize=auto;html=1;" edge="1" parent="WIyWlLk6GJQsqaUBKTNV-1" source="Gc9kroqKO5KA07v_D4qT-10">
          <mxGeometry relative="1" as="geometry">
            <mxPoint x="560" y="475" as="targetPoint" />
          </mxGeometry>
        </mxCell>
        <mxCell id="Gc9kroqKO5KA07v_D4qT-15" value="нет" style="edgeStyle=orthogonalEdgeStyle;rounded=0;orthogonalLoop=1;jettySize=auto;html=1;" edge="1" parent="WIyWlLk6GJQsqaUBKTNV-1" source="Gc9kroqKO5KA07v_D4qT-10">
          <mxGeometry relative="1" as="geometry">
            <mxPoint x="190" y="475" as="targetPoint" />
          </mxGeometry>
        </mxCell>
        <mxCell id="Gc9kroqKO5KA07v_D4qT-10" value="Данные введены&lt;br&gt;корректно?&amp;nbsp;" style="rhombus;whiteSpace=wrap;html=1;rounded=0;" vertex="1" parent="WIyWlLk6GJQsqaUBKTNV-1">
          <mxGeometry x="310" y="410" width="140" height="130" as="geometry" />
        </mxCell>
        <mxCell id="Gc9kroqKO5KA07v_D4qT-16" value="Сообщение об ошибке" style="rounded=0;whiteSpace=wrap;html=1;" vertex="1" parent="WIyWlLk6GJQsqaUBKTNV-1">
          <mxGeometry x="70" y="445" width="120" height="60" as="geometry" />
        </mxCell>
        <mxCell id="Gc9kroqKO5KA07v_D4qT-19" value="" style="edgeStyle=orthogonalEdgeStyle;rounded=0;orthogonalLoop=1;jettySize=auto;html=1;" edge="1" parent="WIyWlLk6GJQsqaUBKTNV-1" source="Gc9kroqKO5KA07v_D4qT-17" target="Gc9kroqKO5KA07v_D4qT-18">
          <mxGeometry relative="1" as="geometry" />
        </mxCell>
        <mxCell id="Gc9kroqKO5KA07v_D4qT-17" value="Проверит данные в базе данных" style="rounded=0;whiteSpace=wrap;html=1;" vertex="1" parent="WIyWlLk6GJQsqaUBKTNV-1">
          <mxGeometry x="560" y="445" width="120" height="60" as="geometry" />
        </mxCell>
        <mxCell id="Gc9kroqKO5KA07v_D4qT-21" value="нет" style="edgeStyle=orthogonalEdgeStyle;rounded=0;orthogonalLoop=1;jettySize=auto;html=1;" edge="1" parent="WIyWlLk6GJQsqaUBKTNV-1" source="Gc9kroqKO5KA07v_D4qT-18">
          <mxGeometry relative="1" as="geometry">
            <mxPoint x="460" y="625" as="targetPoint" />
          </mxGeometry>
        </mxCell>
        <mxCell id="Gc9kroqKO5KA07v_D4qT-18" value="Данные &lt;br&gt;есть в базе данных?" style="rhombus;whiteSpace=wrap;html=1;rounded=0;" vertex="1" parent="WIyWlLk6GJQsqaUBKTNV-1">
          <mxGeometry x="550" y="550" width="140" height="150" as="geometry" />
        </mxCell>
        <mxCell id="Gc9kroqKO5KA07v_D4qT-22" value="да" style="endArrow=classic;html=1;rounded=0;" edge="1" parent="WIyWlLk6GJQsqaUBKTNV-1">
          <mxGeometry width="50" height="50" relative="1" as="geometry">
            <mxPoint x="619.5" y="700" as="sourcePoint" />
            <mxPoint x="620" y="780" as="targetPoint" />
          </mxGeometry>
        </mxCell>
        <mxCell id="Gc9kroqKO5KA07v_D4qT-23" value="Сообщение об ошибке" style="rounded=0;whiteSpace=wrap;html=1;" vertex="1" parent="WIyWlLk6GJQsqaUBKTNV-1">
          <mxGeometry x="340" y="595" width="120" height="60" as="geometry" />
        </mxCell>
        <mxCell id="Gc9kroqKO5KA07v_D4qT-24" value="Сообщение об отмене предзаказа" style="rounded=0;whiteSpace=wrap;html=1;" vertex="1" parent="WIyWlLk6GJQsqaUBKTNV-1">
          <mxGeometry x="560" y="780" width="120" height="60" as="geometry" />
        </mxCell>
        <mxCell id="Gc9kroqKO5KA07v_D4qT-28" value="&lt;h1&gt;Серая зона&lt;br&gt;&lt;/h1&gt;&lt;div&gt;Блок схема отмены предзаказа&lt;/div&gt;" style="text;html=1;strokeColor=none;fillColor=none;spacing=5;spacingTop=-20;whiteSpace=wrap;overflow=hidden;rounded=0;" vertex="1" parent="WIyWlLk6GJQsqaUBKTNV-1">
          <mxGeometry x="30" y="40" width="190" height="120" as="geometry" />
        </mxCell>
        <mxCell id="Gc9kroqKO5KA07v_D4qT-29" value="Конец" style="rounded=1;whiteSpace=wrap;html=1;" vertex="1" parent="WIyWlLk6GJQsqaUBKTNV-1">
          <mxGeometry x="270" y="780" width="120" height="60" as="geometry" />
        </mxCell>
        <mxCell id="Gc9kroqKO5KA07v_D4qT-30" value="" style="endArrow=classic;html=1;rounded=0;" edge="1" parent="WIyWlLk6GJQsqaUBKTNV-1">
          <mxGeometry width="50" height="50" relative="1" as="geometry">
            <mxPoint x="560" y="809.38" as="sourcePoint" />
            <mxPoint x="390" y="809" as="targetPoint" />
          </mxGeometry>
        </mxCell>
        <mxCell id="Gc9kroqKO5KA07v_D4qT-34" value="" style="endArrow=none;html=1;rounded=0;exitX=0.5;exitY=1;exitDx=0;exitDy=0;" edge="1" parent="WIyWlLk6GJQsqaUBKTNV-1" source="Gc9kroqKO5KA07v_D4qT-16">
          <mxGeometry width="50" height="50" relative="1" as="geometry">
            <mxPoint x="290" y="624.38" as="sourcePoint" />
            <mxPoint x="340" y="624.38" as="targetPoint" />
            <Array as="points">
              <mxPoint x="320" y="780" />
            </Array>
          </mxGeometry>
        </mxCell>
      </root>
    </mxGraphModel>
  </diagram>
</mxfile>
